<svg width="36" height="36" viewBox="0 0 36 36" fill="none" xmlns="http://www.w3.org/2000/svg">
<path d="M25.2787 0.0123684C25.1396 0.0171391 24.6812 0.0412312 24.2587 0.06747C17.0998 0.525935 9.07045 2.21023 3.14189 6.47071C2.01314 7.28173 0.99531 8.3165 0.482698 9.60841C0.12084 10.5206 0.026857 11.5162 0.00562734 12.4973C-0.114356 18.0449 1.68659 23.8683 5.19186 28.202C5.89244 29.0681 6.69392 29.8696 7.49778 30.5151C9.2014 31.8852 11.061 32.821 13.5206 33.5481C16.1912 34.34 18.9148 34.8533 21.7751 35.1004C23.3635 35.2371 24.5466 35.2779 26.3943 35.2612C28.2733 35.2421 28.6427 35.2133 29.1635 35.0477C29.9914 34.7863 30.6417 34.3013 31.2151 33.5192C31.6254 32.9577 32.0023 32.1874 32.4534 30.9852C32.6308 30.5101 32.9092 29.7134 32.9092 29.6776C32.9092 29.668 32.8517 29.6704 32.7844 29.68C32.4293 29.7303 31.5271 29.6895 30.9055 29.596C28.3572 29.2096 25.6553 27.8132 22.4592 25.2289C21.2403 24.2452 20.6428 23.7173 17.6122 20.9458C17.0578 20.4393 16.5826 20.0028 16.554 19.9787C16.5037 19.9332 16.5013 19.9356 16.2876 20.1106C14.7254 21.404 12.9521 22.3615 11.3542 22.7694C9.9745 23.1221 8.50583 23.1412 7.33964 22.8268C5.83519 22.4189 4.79375 21.4615 4.45288 20.1753C4.36653 19.8466 4.34244 19.6426 4.34482 19.2154C4.34482 18.7474 4.388 18.486 4.52468 18.0948C5.05733 16.588 6.71062 15.3545 8.57262 15.0761C9.40774 14.9514 10.61 15.0496 11.6729 15.3304C13.1413 15.7168 14.6507 16.4677 16.196 17.5812C16.3639 17.7036 16.5151 17.7971 16.5318 17.7923C16.5631 17.778 17.0237 17.2213 17.434 16.6958C17.782 16.2519 18.8258 14.8674 18.8184 14.86C18.8137 14.8552 18.6818 14.8025 18.5234 14.74C17.4581 14.3202 16.623 13.6673 16.0998 12.8468C15.4735 11.8607 15.2793 10.4545 15.6295 9.4369C15.8766 8.72416 16.3973 8.14595 17.002 7.91314C17.2396 7.82202 17.4075 7.81486 17.6043 7.88904C17.8178 7.96824 18.0315 8.18173 18.0315 8.31626C18.0315 8.38114 17.9475 8.56577 17.8323 8.75302C17.4819 9.32169 17.35 9.79446 17.3476 10.4688C17.3476 10.8383 17.3548 10.9008 17.4149 11.136C17.6668 12.0982 18.2667 12.9334 19.1114 13.4972C19.3225 13.6363 19.5841 13.7828 19.5984 13.7685C19.6032 13.7613 19.9536 13.2766 20.3758 12.6886C22.8979 9.17093 24.0808 7.64955 25.4485 6.16181C27.649 3.76715 29.6382 2.45926 31.613 2.10909C32.2344 1.99865 32.8679 1.98434 33.2446 2.07069C33.9213 2.22431 34.4012 2.70424 34.5668 3.39051C34.6099 3.57036 34.6195 3.67126 34.6171 3.99042C34.6004 6.66822 32.9447 9.50941 30.0532 11.8273C27.8289 13.6101 25.1222 14.8796 22.8187 15.2178C22.4108 15.2803 21.8013 15.3042 21.355 15.2803C21.1317 15.2684 20.94 15.266 20.9328 15.2755C20.9233 15.2851 20.7456 15.5036 20.5392 15.7602C19.805 16.6648 19.2146 17.3272 18.2908 18.2847L17.7894 18.803L18.682 19.578C19.1739 20.0028 19.9104 20.6555 20.321 21.0273C22.2815 22.7982 23.2292 23.6092 24.2346 24.3771C25.5136 25.3536 26.4807 25.9607 27.654 26.5294C29.173 27.266 30.6271 27.6643 32.242 27.7843C32.6499 27.8156 33.449 27.8034 33.4826 27.7676C33.5451 27.7078 34.0992 25.5361 34.3993 24.1946C34.812 22.3421 35.1839 20.1851 35.5944 17.2718C35.7599 16.0985 35.9207 14.1189 35.9832 12.5352C36.0168 11.6331 35.9975 9.75892 35.9472 9.00539C35.7816 6.59618 35.4288 4.89972 34.7905 3.46254C34.3561 2.48121 33.7083 1.60292 33.1253 1.20457C32.1464 0.532614 30.4931 0.141655 28.1342 0.0192859C27.7215 -0.00242081 25.965 -0.00719152 25.2787 0.0121298V0.0123684Z" fill="#2F6FED"/>
</svg>
