<svg width="18" height="18" viewBox="0 0 18 18" fill="none" xmlns="http://www.w3.org/2000/svg">
<path d="M8.02961 1.62486C10.1961 -0.541621 13.7087 -0.54162 15.8751 1.62486C17.9814 3.73117 18.04 7.1098 16.0507 9.28679L15.8751 9.47039L9.47043 15.8751C9.17753 16.168 8.70266 16.168 8.40977 15.8751C8.1435 15.6089 8.11929 15.1922 8.33714 14.8986L8.40976 14.8145L14.8145 8.40973C16.3952 6.82903 16.3952 4.26622 14.8145 2.68552C13.2865 1.15752 10.8407 1.10658 9.25154 2.53272L9.09027 2.68552L2.68552 9.09025C1.10483 10.6709 1.10483 13.2338 2.68552 14.8145C4.21353 16.3425 6.65927 16.3934 8.24847 14.9673L8.40976 14.8145L9.21968 14.0045C9.51257 13.7116 9.98745 13.7117 10.2803 14.0045C10.5466 14.2708 10.5708 14.6875 10.3529 14.9811L10.2803 15.0652L9.47043 15.8751C7.30394 18.0416 3.79135 18.0416 1.62486 15.8751C-0.48144 13.7688 -0.539949 10.3902 1.44934 8.21319L1.62486 8.02959L8.02961 1.62486Z" fill="#3D7BF7"/>
<path d="M0.75 11.25L5.25 5.75L10.75 0.75L14.25 1.75L16.75 4.75L15.75 8.75L7.75 16.75L3.75 16.25L1.75 14.25L0.75 11.25Z" fill="#3D7BF7"/>
<path d="M4.82734 4.82723L5.29927 4.25L5.888 4.82723L13.2265 12.1167L12.7265 12.6775L12.25 13.25L11.6893 12.7499L4.25 5.31049L4.82734 4.82723Z" fill="white"/>
</svg>
