<svg width="20" height="20" viewBox="0 0 20 20" fill="none" xmlns="http://www.w3.org/2000/svg">
<path d="M18.75 1.99976C19.1642 1.99976 19.5 2.33554 19.5 2.74976C19.5 3.12945 19.2178 3.44325 18.8518 3.49291L18.75 3.49976H15.75C15.3358 3.49976 15 3.16397 15 2.74976C15 2.37006 15.2822 2.05626 15.6482 2.0066L15.75 1.99976H18.75Z" fill="#1D2433"/>
<path d="M8.75 1.99976C9.16421 1.99976 9.5 2.33554 9.5 2.74976C9.5 3.12945 9.21785 3.44325 8.85177 3.49291L8.75 3.49976H0.75C0.335786 3.49976 0 3.16397 0 2.74976C0 2.37006 0.282154 2.05626 0.648229 2.0066L0.75 1.99976H8.75Z" fill="#1D2433"/>
<path d="M18.75 8.99976C19.1642 8.99976 19.5 9.33554 19.5 9.74976C19.5 10.1295 19.2178 10.4432 18.8518 10.4929L18.75 10.4998H10.75C10.3358 10.4998 10 10.164 10 9.74976C10 9.37006 10.2822 9.05626 10.6482 9.0066L10.75 8.99976H18.75Z" fill="#1D2433"/>
<path d="M3.75 8.99976C4.16421 8.99976 4.5 9.33554 4.5 9.74976C4.5 10.1295 4.21785 10.4432 3.85177 10.4929L3.75 10.4998H0.75C0.335786 10.4998 0 10.164 0 9.74976C0 9.37006 0.282154 9.05626 0.648229 9.0066L0.75 8.99976H3.75Z" fill="#1D2433"/>
<path d="M18.75 15.9998C19.1642 15.9998 19.5 16.3355 19.5 16.7498C19.5 17.1295 19.2178 17.4432 18.8518 17.4929L18.75 17.4998H15.75C15.3358 17.4998 15 17.164 15 16.7498C15 16.3701 15.2822 16.0563 15.6482 16.0066L15.75 15.9998H18.75Z" fill="#1D2433"/>
<path d="M8.75 15.9998C9.16421 15.9998 9.5 16.3355 9.5 16.7498C9.5 17.1295 9.21785 17.4432 8.85177 17.4929L8.75 17.4998H0.75C0.335786 17.4998 0 17.164 0 16.7498C0 16.3701 0.282154 16.0563 0.648229 16.0066L0.75 15.9998H8.75Z" fill="#1D2433"/>
<path d="M11.8054 0.80542C12.8793 -0.268473 14.6202 -0.268473 15.6941 0.80542C16.768 1.87931 16.768 3.62019 15.6941 4.69408C14.6202 5.76797 12.8793 5.76797 11.8054 4.69408C10.7315 3.62019 10.7315 1.87931 11.8054 0.80542Z" fill="#1D2433"/>
<path d="M3.80542 7.80542C4.87931 6.73153 6.62019 6.73153 7.69408 7.80542C8.76797 8.87931 8.76797 10.6202 7.69408 11.6941C6.62019 12.768 4.87931 12.768 3.80542 11.6941C2.73153 10.6202 2.73153 8.87931 3.80542 7.80542Z" fill="#1D2433"/>
<path d="M11.8054 14.8054C12.8793 13.7315 14.6202 13.7315 15.6941 14.8054C16.768 15.8793 16.768 17.6202 15.6941 18.6941C14.6202 19.768 12.8793 19.768 11.8054 18.6941C10.7315 17.6202 10.7315 15.8793 11.8054 14.8054Z" fill="#1D2433"/>
</svg>
